<svg width="27" height="26" viewBox="0 0 27 26" fill="none" xmlns="http://www.w3.org/2000/svg">
<g clip-path="url(#clip0_34_6820)">
<path fill-rule="evenodd" clip-rule="evenodd" d="M18.2328 3.50029C16.4298 3.04956 14.6269 2.1481 13.2747 0.795898C11.9225 2.1481 10.1196 3.04956 8.31665 3.50029C8.76738 7.55689 10.1196 10.2613 13.2747 12.5149C16.4298 10.2613 18.2328 7.55689 18.2328 3.50029Z" fill="#FFC727"/>
<path fill-rule="evenodd" clip-rule="evenodd" d="M16.4296 20.2824L3.80908 5.4082V12.6199L13.7252 23.8882L16.4296 20.2824Z" fill="#FBFBFB"/>
<path fill-rule="evenodd" clip-rule="evenodd" d="M17.782 18.9306L23.1908 12.6204V5.85938L14.6268 15.7755L17.782 18.9306Z" fill="#FBFBFB"/>
<path fill-rule="evenodd" clip-rule="evenodd" d="M18.2327 21.1842V25.2408L23.1907 19.3813V15.3247L18.2327 21.1842Z" fill="#FBFBFB"/>
<path fill-rule="evenodd" clip-rule="evenodd" d="M8.76714 21.1842L3.80908 15.3247V19.3813L8.76714 25.2408V21.1842Z" fill="#FBFBFB"/>
</g>
<defs>
<clipPath id="clip0_34_6820">
<rect width="25.4605" height="25.4605" fill="white" transform="translate(0.769775)"/>
</clipPath>
</defs>
</svg>
